<?xml version="1.0" encoding="UTF-8"?>
<svg id="Layer_2" data-name="Layer 2" xmlns="http://www.w3.org/2000/svg" viewBox="0 0 328.58 214.08">
  <defs>
    <style>
      .cls-1 {
        fill: #fff;
      }

      .cls-2 {
        fill: #2eb844;
      }
    </style>
  </defs>
  <g id="Layer_1-2" data-name="Layer 1">
    <polygon class="cls-1" points="150.42 212.65 150.05 110.56 133.41 212.64 107.39 212.65 89.73 110.18 89.47 212.66 63.29 212.58 63.29 67.25 107.7 67.18 119.9 154.82 132.1 67.19 176.81 67.21 176.81 212.64 150.42 212.65"/>
    <path class="cls-1" d="M221.67,185.81c2.22-2.09,2.73-4.93,2.73-7.73l.04-28.19h29.55s-.1,30.84-.1,30.84c-.45,5.55-1.21,10.74-3.51,15.76-6.6,15.8-26.24,19.64-41.96,16.66-15.47-2.93-26.09-17.3-26.1-31.93l-.05-77.78c0-7.2,1.89-13.98,4.63-20.31,3.27-7.55,9.39-13.03,17.23-15.39,13.79-4.14,31.14-2.14,41.39,8.52,4.92,5.45,7.15,12.09,7.94,19.47l.13,29.39-29.09.09-.22-26.61c-.38-3.75-2.93-6.37-6.69-5.93-3.16-.24-5.63,1.98-5.96,5.1l-.65,6.04v71.8s.63,6.04.63,6.04c.24,2.3,1.84,4.25,3.51,5.03,2.09.97,4.82.77,6.56-.88Z"/>
    <polygon class="cls-1" points="56.99 151.08 29.54 151.14 29.58 184.29 60.16 184.35 60.16 212.65 0 212.63 0 67.28 58.27 67.18 58.27 95.21 29.58 95.28 29.54 123.44 56.94 123.45 56.99 151.08"/>
    <path class="cls-2" d="M304.45,57.62l2.69-35.53-11.8-.31-21.6-.56c-3.18-.08-6.39-.48-8.49-3.13-2.96-3.72-2.99-8.89-1.05-13.21,1.38-3,4.09-5.02,7.68-4.88l56.69,2.31-3.06,55.28c-.22,3.92-2.13,6.95-5.93,8.03-3.56,1.13-7.45.87-10.83-.75-2.87-1.38-4.56-3.98-4.32-7.25Z"/>
    <path class="cls-2" d="M270.64,86.35l2.69-34.73-20.01-.5-15.35-.46c-2.73-.08-5.44-1.26-6.94-3.53-2.81-4.26-2.54-9.6.03-13.99,1.38-1.89,3.66-3.73,6.42-3.62l57.36,2.31-3.18,55.08c-.17,2.89-.93,5.32-3.25,7-3.94,2.41-8.64,2.57-12.87.81-3.44-1.43-5.19-4.48-4.89-8.37Z"/>
  </g>
</svg>